<svg version="1.1" id="Layer_1" xmlns="http://www.w3.org/2000/svg" x="0" y="0" viewBox="0 0 312 53" xml:space="preserve"><style>.st0{fill:#fdbd10}</style><path class="st0" d="M32.8 49v2.4h.4v-1h.1l.7 1h.5s-.7-1-.7-1.1c.3-.1.5-.3.5-.6s-.2-.7-.8-.7c0 .1-.7.1-.7 0zm.7.4c.4 0 .4.2.4.3 0 .2-.1.4-.6.4h-.1v-.7c0 .1.3.1.3 0zm1.7.9c0 .9-.7 1.6-1.6 1.6-.9 0-1.6-.7-1.6-1.6s.7-1.7 1.6-1.7c.9.1 1.6.8 1.6 1.7zm-1.7-2c-1.1 0-2 .9-2 2s.9 2 2 2 2-.9 2-2-.8-2-2-2zm-11.2 2c1.2-.5 11.9-5.2 15.3-8 3.7-3 5.6-7.3 5.6-12.5V5.2C37.4 2.1 30.4.6 22.3.6S7.2 2.2 1.4 5.2v24.6c0 5.2 1.9 9.5 5.6 12.5 3.4 2.7 14.1 7.5 15.3 8"/><path d="M41.3 5.8v24.1c0 4.6-1.7 8.4-4.9 11-2.9 2.4-11.6 6.3-14 7.4-2.5-1.1-11.2-5-14-7.4-3.2-2.6-4.9-6.4-4.9-11V15.8c9-8.2 19.8-10.4 29.9-10.4 2.6-.1 5.3.1 7.9.4" fill="#361400"/><path class="st0" d="M5.2 28.3c0 3.8 1.8 5.8 5.4 5.8 2.2 0 4.1-.5 5.5-1.5V16.9h-3.6v13.7c-.4.3-1 .4-1.7.4-1.7 0-1.9-1.5-1.9-2.6V16.9H5.3l-.1 11.4zm16.4-8.5c.3-.1.8-.3 1.3-.3 2.1 0 3 1.7 3 5.8 0 4-1 5.9-3.1 5.9-.5 0-.9-.1-1.2-.2V19.8zm0 14.1c.4.1.9.2 1.6.2 4 0 6.3-3.6 6.3-8.9s-2.4-8.6-6.7-8.6c-2 0-3.6.4-4.9 1.3v23.7h3.6v-7.7h.1zm8.8-12.6c0 1.9.5 3.4 3.5 5.1 1.6.9 2.2 1.6 2.3 2.7 0 1.3-.8 2-2.2 2-1.2 0-2.5-.7-3.5-1.5v3.3c1.1.7 2.6 1.1 4 1.1 3.6 0 5.2-2.5 5.3-4.9.1-2.1-.5-3.7-3.6-5.5-1.4-.8-2.4-1.3-2.4-2.6s1.1-1.7 2.1-1.7c1.3 0 2.5.7 3.3 1.5v-3.2c-.6-.5-2-1.2-4-1.2-2.3.3-4.8 1.9-4.8 4.9"/><path d="M68.3 17.2v23h-5.9v-23H57v-4.4h16.7v4.4h-5.4zm22.7 23V28.3h-7.8v11.9h-5.9V12.8h5.9v11.3H91V12.8h5.9v27.3H91zm10.8 0V12.8H116v4.4h-8.3v6.9h7.3v4.2h-7.3v7.5h8.3v4.4h-14.2zm37.8.3c-5.4 0-9.4-3.3-9.4-8.5V12.8h5.9v19.4c0 2.6 1.7 3.9 3.7 3.9 2.1 0 3.7-1.3 3.7-3.9V12.8h5.5V32c0 5.2-4 8.5-9.4 8.5zm23-11.2h-2.9v10.9h-5.9V12.8h8.7c6.4 0 9.6 3.2 9.6 8.2.1 4.9-3.1 8.3-9.5 8.3zm-.7-13.1h-2.2v9.7h2.2c2.4 0 4.5-1.2 4.5-4.7.1-3.5-1.8-5-4.5-5zm20.9 24.3c-3.6 0-5.2-.6-7-1.4V34c2.2 1.4 3.9 2 6.2 2 3 0 4.2-1.6 4.2-3.5 0-1.8-1.8-2.9-4.8-4.1-4.4-1.8-5.8-4.5-5.8-7.5 0-4.4 3.1-8.4 8.9-8.4 3.3 0 4.7.7 6 1.3v4.5c-1.9-1.1-3.4-1.6-5-1.6-2.3 0-3.9 1-3.9 3.2s1.9 3.1 4.2 4.1c5.4 2.3 6.4 5 6.4 8-.1 4.8-3.4 8.5-9.4 8.5zm30.3 0c-3.6 0-5.2-.6-7-1.4V34c2.2 1.4 3.9 2 6.2 2 3 0 4.2-1.6 4.2-3.5 0-1.8-1.8-2.9-4.8-4.1-4.4-1.8-5.8-4.5-5.8-7.5 0-4.4 3.1-8.4 8.9-8.4 3.3 0 4.7.7 6 1.3v4.5c-1.9-1.1-3.4-1.6-5-1.6-2.3 0-3.9 1-3.9 3.2s1.9 3.1 4.2 4.1c5.4 2.3 6.4 5 6.4 8-.1 4.8-3.4 8.5-9.4 8.5zm23.4-23.3v23h-5.9v-23h-5.4v-4.4H242v4.4h-5.5zm18.9 23.3c-7.7 0-10.7-6.3-10.7-14.1 0-7.7 3-14.1 10.7-14.1s10.7 6.5 10.7 14.2-3 14-10.7 14zm0-24.1c-3.9 0-4.7 5-4.7 9.8s.8 9.8 4.7 9.8c4 0 4.7-5 4.7-9.8.1-4.7-.7-9.8-4.7-9.8zm28.1 23.8l-5.9-11.9h-1.5v11.9h-5.8V12.8h9.5c5.7 0 8.8 3.1 8.8 7.6 0 3.3-2 5.8-5.3 6.8l6.6 13h-6.4zm-5-24.2h-2.4v8.8h2.4c2.7 0 4.3-.9 4.3-4.4.1-3.4-1.6-4.4-4.3-4.4zm14.6 24.2V12.8h14.2v4.4H299v6.9h7.3v4.2H299v7.5h8.3v4.4h-14.2zm16.3-26.8c-.7 0-1.2-.6-1.2-1.3s.6-1.3 1.2-1.3 1.2.6 1.2 1.3c-.1.7-.6 1.3-1.2 1.3zm0-2.4c-.6 0-1 .5-1 1.1s.5 1.1 1 1.1c.6 0 1-.5 1-1.1s-.5-1.1-1-1.1zm.1 1.8l-.3-.6h-.1v.6h-.3v-1.4h.5c.3 0 .5.2.5.4s-.1.3-.3.4l.3.7h-.3v-.1zm-.1-1.2h-.2v.4h.1c.1 0 .2 0 .2-.2s-.1-.2-.1-.2z" fill="#231f20"/></svg>